<mxfile host="Electron" agent="Mozilla/5.0 (X11; Linux x86_64) AppleWebKit/537.36 (KHTML, like Gecko) draw.io/26.0.4 Chrome/128.0.6613.186 Electron/32.2.5 Safari/537.36" version="26.0.4">
  <diagram name="Page-1" id="hrb46rRicmL8hcBbEHm8">
    <mxGraphModel dx="1114" dy="1027" grid="1" gridSize="10" guides="1" tooltips="1" connect="1" arrows="1" fold="1" page="1" pageScale="1" pageWidth="850" pageHeight="1100" math="0" shadow="0">
      <root>
        <mxCell id="0" />
        <mxCell id="1" parent="0" />
        <mxCell id="hdFbrnAtOKcWGGZMTWwf-4" value="Availability zone 1 to 3" style="sketch=0;outlineConnect=0;gradientColor=none;html=1;whiteSpace=wrap;fontSize=12;fontStyle=0;shape=mxgraph.aws4.group;grIcon=mxgraph.aws4.group_availability_zone;strokeColor=#545B64;fillColor=none;verticalAlign=top;align=left;spacingLeft=30;fontColor=#545B64;dashed=1;" vertex="1" parent="1">
          <mxGeometry x="620" y="350" width="160" height="150" as="geometry" />
        </mxCell>
        <mxCell id="hdFbrnAtOKcWGGZMTWwf-25" style="edgeStyle=orthogonalEdgeStyle;rounded=0;orthogonalLoop=1;jettySize=auto;html=1;" edge="1" parent="1" source="hdFbrnAtOKcWGGZMTWwf-1" target="hdFbrnAtOKcWGGZMTWwf-2">
          <mxGeometry relative="1" as="geometry" />
        </mxCell>
        <mxCell id="hdFbrnAtOKcWGGZMTWwf-1" value="" style="sketch=0;outlineConnect=0;fontColor=#232F3E;gradientColor=none;fillColor=#232F3D;strokeColor=none;dashed=0;verticalLabelPosition=bottom;verticalAlign=top;align=center;html=1;fontSize=12;fontStyle=0;aspect=fixed;pointerEvents=1;shape=mxgraph.aws4.users;" vertex="1" parent="1">
          <mxGeometry x="250" y="390" width="78" height="78" as="geometry" />
        </mxCell>
        <mxCell id="hdFbrnAtOKcWGGZMTWwf-24" style="edgeStyle=orthogonalEdgeStyle;rounded=0;orthogonalLoop=1;jettySize=auto;html=1;" edge="1" parent="1" source="hdFbrnAtOKcWGGZMTWwf-2" target="hdFbrnAtOKcWGGZMTWwf-3">
          <mxGeometry relative="1" as="geometry" />
        </mxCell>
        <mxCell id="hdFbrnAtOKcWGGZMTWwf-2" value="" style="sketch=0;points=[[0,0,0],[0.25,0,0],[0.5,0,0],[0.75,0,0],[1,0,0],[0,1,0],[0.25,1,0],[0.5,1,0],[0.75,1,0],[1,1,0],[0,0.25,0],[0,0.5,0],[0,0.75,0],[1,0.25,0],[1,0.5,0],[1,0.75,0]];outlineConnect=0;fontColor=#232F3E;fillColor=#8C4FFF;strokeColor=#ffffff;dashed=0;verticalLabelPosition=bottom;verticalAlign=top;align=center;html=1;fontSize=12;fontStyle=0;aspect=fixed;shape=mxgraph.aws4.resourceIcon;resIcon=mxgraph.aws4.cloudfront;" vertex="1" parent="1">
          <mxGeometry x="440" y="390" width="78" height="78" as="geometry" />
        </mxCell>
        <mxCell id="hdFbrnAtOKcWGGZMTWwf-18" style="edgeStyle=orthogonalEdgeStyle;rounded=0;orthogonalLoop=1;jettySize=auto;html=1;exitX=1;exitY=0;exitDx=0;exitDy=0;exitPerimeter=0;" edge="1" parent="1" source="hdFbrnAtOKcWGGZMTWwf-3" target="hdFbrnAtOKcWGGZMTWwf-10">
          <mxGeometry relative="1" as="geometry">
            <Array as="points">
              <mxPoint x="840" y="390" />
              <mxPoint x="840" y="274" />
            </Array>
          </mxGeometry>
        </mxCell>
        <mxCell id="hdFbrnAtOKcWGGZMTWwf-19" style="edgeStyle=orthogonalEdgeStyle;rounded=0;orthogonalLoop=1;jettySize=auto;html=1;exitX=1;exitY=0.25;exitDx=0;exitDy=0;exitPerimeter=0;" edge="1" parent="1" source="hdFbrnAtOKcWGGZMTWwf-3" target="hdFbrnAtOKcWGGZMTWwf-11">
          <mxGeometry relative="1" as="geometry">
            <Array as="points">
              <mxPoint x="860" y="410" />
              <mxPoint x="860" y="334" />
            </Array>
          </mxGeometry>
        </mxCell>
        <mxCell id="hdFbrnAtOKcWGGZMTWwf-20" style="edgeStyle=orthogonalEdgeStyle;rounded=0;orthogonalLoop=1;jettySize=auto;html=1;exitX=1;exitY=0.5;exitDx=0;exitDy=0;exitPerimeter=0;" edge="1" parent="1" source="hdFbrnAtOKcWGGZMTWwf-3" target="hdFbrnAtOKcWGGZMTWwf-13">
          <mxGeometry relative="1" as="geometry" />
        </mxCell>
        <mxCell id="hdFbrnAtOKcWGGZMTWwf-22" style="edgeStyle=orthogonalEdgeStyle;rounded=0;orthogonalLoop=1;jettySize=auto;html=1;exitX=1;exitY=1;exitDx=0;exitDy=0;exitPerimeter=0;" edge="1" parent="1" source="hdFbrnAtOKcWGGZMTWwf-3" target="hdFbrnAtOKcWGGZMTWwf-16">
          <mxGeometry relative="1" as="geometry">
            <Array as="points">
              <mxPoint x="840" y="468" />
              <mxPoint x="840" y="634" />
            </Array>
          </mxGeometry>
        </mxCell>
        <mxCell id="hdFbrnAtOKcWGGZMTWwf-23" style="edgeStyle=orthogonalEdgeStyle;rounded=0;orthogonalLoop=1;jettySize=auto;html=1;exitX=1;exitY=0.75;exitDx=0;exitDy=0;exitPerimeter=0;" edge="1" parent="1" source="hdFbrnAtOKcWGGZMTWwf-3" target="hdFbrnAtOKcWGGZMTWwf-14">
          <mxGeometry relative="1" as="geometry">
            <Array as="points">
              <mxPoint x="820" y="449" />
              <mxPoint x="820" y="460" />
              <mxPoint x="890" y="460" />
              <mxPoint x="890" y="514" />
            </Array>
          </mxGeometry>
        </mxCell>
        <mxCell id="hdFbrnAtOKcWGGZMTWwf-3" value="" style="sketch=0;points=[[0,0,0],[0.25,0,0],[0.5,0,0],[0.75,0,0],[1,0,0],[0,1,0],[0.25,1,0],[0.5,1,0],[0.75,1,0],[1,1,0],[0,0.25,0],[0,0.5,0],[0,0.75,0],[1,0.25,0],[1,0.5,0],[1,0.75,0]];outlineConnect=0;fontColor=#232F3E;fillColor=#ED7100;strokeColor=#ffffff;dashed=0;verticalLabelPosition=bottom;verticalAlign=top;align=center;html=1;fontSize=12;fontStyle=0;aspect=fixed;shape=mxgraph.aws4.resourceIcon;resIcon=mxgraph.aws4.elastic_load_balancing;" vertex="1" parent="1">
          <mxGeometry x="660" y="390" width="78" height="78" as="geometry" />
        </mxCell>
        <mxCell id="hdFbrnAtOKcWGGZMTWwf-6" value="Auto Scaling group" style="points=[[0,0],[0.25,0],[0.5,0],[0.75,0],[1,0],[1,0.25],[1,0.5],[1,0.75],[1,1],[0.75,1],[0.5,1],[0.25,1],[0,1],[0,0.75],[0,0.5],[0,0.25]];outlineConnect=0;gradientColor=none;html=1;whiteSpace=wrap;fontSize=12;fontStyle=0;container=1;pointerEvents=0;collapsible=0;recursiveResize=0;shape=mxgraph.aws4.groupCenter;grIcon=mxgraph.aws4.group_auto_scaling_group;grStroke=1;strokeColor=#D86613;fillColor=none;verticalAlign=top;align=center;fontColor=#D86613;dashed=1;spacingTop=25;" vertex="1" parent="1">
          <mxGeometry x="880" y="160" width="180" height="540" as="geometry" />
        </mxCell>
        <mxCell id="hdFbrnAtOKcWGGZMTWwf-7" value="Availability zone 1" style="sketch=0;outlineConnect=0;gradientColor=none;html=1;whiteSpace=wrap;fontSize=12;fontStyle=0;shape=mxgraph.aws4.group;grIcon=mxgraph.aws4.group_availability_zone;strokeColor=#545B64;fillColor=none;verticalAlign=top;align=left;spacingLeft=30;fontColor=#545B64;dashed=1;" vertex="1" parent="hdFbrnAtOKcWGGZMTWwf-6">
          <mxGeometry x="20" y="60" width="140" height="160" as="geometry" />
        </mxCell>
        <mxCell id="hdFbrnAtOKcWGGZMTWwf-10" value="" style="sketch=0;outlineConnect=0;fontColor=#232F3E;gradientColor=none;fillColor=#ED7100;strokeColor=none;dashed=0;verticalLabelPosition=bottom;verticalAlign=top;align=center;html=1;fontSize=12;fontStyle=0;aspect=fixed;pointerEvents=1;shape=mxgraph.aws4.instance2;" vertex="1" parent="hdFbrnAtOKcWGGZMTWwf-6">
          <mxGeometry x="66" y="90" width="48" height="48" as="geometry" />
        </mxCell>
        <mxCell id="hdFbrnAtOKcWGGZMTWwf-11" value="" style="sketch=0;outlineConnect=0;fontColor=#232F3E;gradientColor=none;fillColor=#ED7100;strokeColor=none;dashed=0;verticalLabelPosition=bottom;verticalAlign=top;align=center;html=1;fontSize=12;fontStyle=0;aspect=fixed;pointerEvents=1;shape=mxgraph.aws4.instance2;" vertex="1" parent="hdFbrnAtOKcWGGZMTWwf-6">
          <mxGeometry x="66" y="150" width="48" height="48" as="geometry" />
        </mxCell>
        <mxCell id="hdFbrnAtOKcWGGZMTWwf-12" value="Availability zone 1" style="sketch=0;outlineConnect=0;gradientColor=none;html=1;whiteSpace=wrap;fontSize=12;fontStyle=0;shape=mxgraph.aws4.group;grIcon=mxgraph.aws4.group_availability_zone;strokeColor=#545B64;fillColor=none;verticalAlign=top;align=left;spacingLeft=30;fontColor=#545B64;dashed=1;" vertex="1" parent="hdFbrnAtOKcWGGZMTWwf-6">
          <mxGeometry x="20" y="240" width="140" height="160" as="geometry" />
        </mxCell>
        <mxCell id="hdFbrnAtOKcWGGZMTWwf-13" value="" style="sketch=0;outlineConnect=0;fontColor=#232F3E;gradientColor=none;fillColor=#ED7100;strokeColor=none;dashed=0;verticalLabelPosition=bottom;verticalAlign=top;align=center;html=1;fontSize=12;fontStyle=0;aspect=fixed;pointerEvents=1;shape=mxgraph.aws4.instance2;" vertex="1" parent="hdFbrnAtOKcWGGZMTWwf-6">
          <mxGeometry x="66" y="270" width="48" height="48" as="geometry" />
        </mxCell>
        <mxCell id="hdFbrnAtOKcWGGZMTWwf-14" value="" style="sketch=0;outlineConnect=0;fontColor=#232F3E;gradientColor=none;fillColor=#ED7100;strokeColor=none;dashed=0;verticalLabelPosition=bottom;verticalAlign=top;align=center;html=1;fontSize=12;fontStyle=0;aspect=fixed;pointerEvents=1;shape=mxgraph.aws4.instance2;" vertex="1" parent="hdFbrnAtOKcWGGZMTWwf-6">
          <mxGeometry x="66" y="330" width="48" height="48" as="geometry" />
        </mxCell>
        <mxCell id="hdFbrnAtOKcWGGZMTWwf-15" value="Availability zone 1" style="sketch=0;outlineConnect=0;gradientColor=none;html=1;whiteSpace=wrap;fontSize=12;fontStyle=0;shape=mxgraph.aws4.group;grIcon=mxgraph.aws4.group_availability_zone;strokeColor=#545B64;fillColor=none;verticalAlign=top;align=left;spacingLeft=30;fontColor=#545B64;dashed=1;" vertex="1" parent="hdFbrnAtOKcWGGZMTWwf-6">
          <mxGeometry x="20" y="420" width="140" height="100" as="geometry" />
        </mxCell>
        <mxCell id="hdFbrnAtOKcWGGZMTWwf-16" value="" style="sketch=0;outlineConnect=0;fontColor=#232F3E;gradientColor=none;fillColor=#ED7100;strokeColor=none;dashed=0;verticalLabelPosition=bottom;verticalAlign=top;align=center;html=1;fontSize=12;fontStyle=0;aspect=fixed;pointerEvents=1;shape=mxgraph.aws4.instance2;" vertex="1" parent="hdFbrnAtOKcWGGZMTWwf-6">
          <mxGeometry x="66" y="450" width="48" height="48" as="geometry" />
        </mxCell>
      </root>
    </mxGraphModel>
  </diagram>
</mxfile>
